<svg width="312.5" height="312.5" viewBox="0 0 312.5 312.5" class="css-1j8o68f">
  <defs id="SvgjsDefs1015"></defs>
  <g id="SvgjsG1016" featurekey="rootContainer"
    transform="matrix(6.25,0,0,6.25,0.31249597668647766,0)" fill="#f6f6f6">
    <path xmlns="http://www.w3.org/2000/svg"
      d="M24.95 0a25 25 0 1 0 25 25 25 25 0 0 0-25-25zm0 46.91a22 22 0 1 1 22-22 22 22 0 0 1-22 21.99z"></path>
    <path xmlns="http://www.w3.org/2000/svg"
      d="M24.95 3.65a21.3 21.3 0 1 0 21.3 21.3 21.33 21.33 0 0 0-21.3-21.3z"></path>
  </g>
  <g id="SvgjsG1017" featurekey="symbolFeature-0"
    transform="matrix(0.9895833333333334,0,0,0.9895833333333334,109,44.183651427427925)"
    fill="#111111">
    <path xmlns="http://www.w3.org/2000/svg"
      d="M28.416,76.572c-1.024,0-2.048-0.393-2.832-1.172L1.172,50.844C0.42,50.092,0,49.068,0,48c0-1.068,0.42-2.088,1.176-2.848  l24.412-24.548c1.56-1.568,4.092-1.576,5.656,0.004c1.56,1.58,1.56,4.12-0.004,5.696L9.664,48l21.58,21.704  c1.56,1.571,1.56,4.116,0,5.688C30.464,76.18,29.432,76.572,28.416,76.572L28.416,76.572z"></path>
    <path xmlns="http://www.w3.org/2000/svg"
      d="M67.588,76.572c-1.023,0-2.052-0.393-2.828-1.18c-1.568-1.572-1.568-4.117,0-5.697L86.344,48L64.76,26.304  c-1.568-1.58-1.568-4.12,0-5.696c1.568-1.58,4.088-1.576,5.656-0.008l24.412,24.552C95.58,45.9,96,46.928,96,48  c0,1.068-0.42,2.088-1.172,2.844L70.416,75.393C69.641,76.18,68.611,76.572,67.588,76.572L67.588,76.572z"></path>
    <path xmlns="http://www.w3.org/2000/svg"
      d="M38.348,78c-0.476,0-0.964-0.084-1.436-0.264c-2.06-0.805-3.092-3.133-2.296-5.213l19.868-51.947  c0.795-2.076,3.107-3.096,5.168-2.304c2.06,0.796,3.088,3.124,2.296,5.204L42.072,75.424C41.476,77.016,39.952,78,38.348,78z"></path>
  </g>
  <g id="SvgjsG1018" featurekey="nameFeature-0"
    transform="matrix(1.6066837612987572,0,0,1.6066837612987572,56,121.84832484597946)"
    fill="#111111">
    <path
      d="M5.12 33.4 c1.96 0.88 3.68 1.32 5.12 1.32 c0.72 0 1.16 -0.04 1.36 -0.16 c0.92 -0.24 1.56 -0.76 1.96 -1.56 l0.04 -0.08 c0.2 -0.36 0.28 -0.8 0.28 -1.36 c0 -0.28 -0.08 -0.6 -0.24 -1 l-0.08 -0.16 c-0.52 -1.08 -1.68 -1.8 -3.8 -2.48 l-0.4 -0.12 l-0.12 -0.04 c-3.24 -0.96 -5.32 -2.48 -6.32 -4.6 c-0.4 -0.8 -0.6 -1.68 -0.6 -2.64 c0 -1 0.2 -1.96 0.6 -2.96 l0.08 -0.16 c0.92 -1.84 2.4 -3.04 4.36 -3.64 c1.4 -0.2 2.2 -0.32 2.4 -0.32 c2.72 0 5.88 1.12 9.44 3.32 l0.76 -1.24 c-3.88 -2.36 -7.24 -3.52 -10.16 -3.52 c-1.16 0 -2.12 0.12 -2.8 0.4 c-2.36 0.64 -4.12 2.08 -5.28 4.36 l-0.12 0.28 c-0.48 1.16 -0.72 2.32 -0.72 3.48 c0 1.24 0.24 2.32 0.72 3.28 c1.24 2.48 3.64 4.24 7.24 5.32 l0.48 0.16 c1.64 0.52 2.6 1.08 2.96 1.72 l0.04 0.08 c0.08 0.12 0.12 0.28 0.12 0.48 c0 0.36 -0.04 0.6 -0.16 0.8 c-0.28 0.64 -0.96 0.96 -2.04 0.96 c-1.72 0 -4.2 -0.88 -6.12 -2.12 l-0.6 -0.36 l-3.52 5.68 l0.6 0.36 c2.84 1.92 6.6 3.12 9.64 3.12 c1 0 1.92 -0.12 2.76 -0.36 c2.36 -0.68 4.12 -2.16 5.28 -4.4 l0.16 -0.28 c0.48 -1.24 0.72 -2.4 0.72 -3.48 c0 -0.96 -0.32 -2.16 -0.92 -3.64 c-1.08 -2.16 -3.36 -3.8 -6.92 -4.92 l-0.56 -0.16 c-1.12 -0.36 -1.88 -0.72 -2.24 -1 c-0.48 -0.4 -0.76 -0.68 -0.88 -0.84 l-0.08 -0.44 c0 -0.4 0.08 -0.76 0.28 -1.04 c0.32 -0.6 0.64 -0.76 1.92 -0.76 c1.72 0 4.2 0.88 6.12 2.12 l0.6 0.36 l2.16 -3.44 l-0.64 -0.36 c-2.44 -1.6 -5.76 -2.72 -8.2 -2.72 c-1.08 0 -1.76 0.08 -2.12 0.28 c-1.64 0.48 -2.88 1.52 -3.68 3.08 c-0.36 0.68 -0.52 1.48 -0.52 2.48 c0 0.76 0.16 1.48 0.48 2.16 c0.84 1.8 2.72 3.12 5.64 4 l0.52 0.16 l1.08 0.4 c0.6 0.24 1.24 0.56 1.96 0.96 c1.28 0.76 1.92 1.84 1.92 3.28 c0 0.8 -0.2 1.56 -0.56 2.24 c-0.84 1.48 -2.28 2.24 -4.28 2.24 c-1.36 0 -3.28 -0.52 -5.76 -1.52 l-0.68 1.16 l-0.04 0.08 c2.28 1.16 4.44 1.72 6.52 1.72 c1.16 0 2.24 -0.24 3.2 -0.72 c1.88 -0.92 3.04 -2.84 3.04 -5.24 c0 -3.8 -2.92 -4.92 -6 -6 l-0.52 -0.16 c-2.52 -0.76 -4.08 -1.8 -4.72 -3.2 c-0.24 -0.48 -0.36 -1 -0.36 -1.6 c0 -0.76 0.12 -1.36 0.4 -1.88 c0.64 -1.16 1.56 -1.92 2.76 -2.28 l1.6 -0.2 c2.12 0 4.44 0.72 6.96 2.12 l-0.64 1 c-2.6 -1.28 -4.68 -1.92 -6.2 -1.92 c-0.76 0 -1.2 0.04 -1.4 0.16 c-0.88 0.24 -1.52 0.76 -1.96 1.6 l-0.04 0.08 c-0.2 0.36 -0.28 0.84 -0.28 1.44 c0 0.44 0.08 0.76 0.2 0.96 c0.52 1.08 1.88 1.96 4.04 2.6 l0.52 0.16 l1 0.32 c0.12 0.04 0.76 0.32 1.92 0.88 c1.56 0.88 2.68 2 3.32 3.32 c0.4 0.8 0.6 1.68 0.6 2.64 c0 1.16 -0.2 2.16 -0.64 3 l-0.08 0.16 c-0.92 1.84 -2.4 3.04 -4.36 3.64 c-1.4 0.2 -2.2 0.32 -2.4 0.32 c-2.04 0 -4.68 -0.76 -7.12 -1.92 l-1.12 -0.6 l2 -3.24 z M35.64 40 c-2.44 0 -4.76 -0.64 -6.96 -1.92 c-4.4 -2.52 -7.12 -7.16 -7.12 -12.12 c0 -2.48 0.64 -4.8 1.92 -7 c2.52 -4.32 7.24 -7.04 12.16 -7.04 c2.44 0 4.8 0.64 7 1.88 c4.4 2.56 7.04 7.32 7.04 12.16 c0 2.44 -0.64 4.72 -1.88 6.92 c-2.56 4.4 -7.2 7.12 -12.16 7.12 z M35.64 13.32 c-2.28 0 -4.4 0.56 -6.32 1.68 c-3.88 2.24 -6.28 6.36 -6.28 10.96 c0 2.28 0.56 4.4 1.68 6.32 c2.24 3.88 6.32 6.28 10.92 6.28 c2.28 0 4.4 -0.56 6.36 -1.68 c3.88 -2.24 6.28 -6.32 6.28 -10.92 c0 -2.28 -0.56 -4.4 -1.68 -6.36 c-2.24 -3.88 -6.48 -6.28 -10.96 -6.28 z M35.64 37.28 c-2 0 -3.88 -0.52 -5.68 -1.52 c-3.56 -2.04 -5.76 -5.76 -5.76 -9.8 c0 -2.04 0.52 -3.92 1.52 -5.68 c2.04 -3.52 5.64 -5.6 9.92 -5.6 c2.16 0 4.12 0.48 5.84 1.44 c3.44 1.92 5.44 5.52 5.44 9.84 c0 2.04 -0.48 3.92 -1.44 5.64 c-1.96 3.48 -5.8 5.68 -9.84 5.68 z M35.64 16.08 c-1.8 0 -3.44 0.44 -4.96 1.32 c-3.08 1.76 -4.96 4.92 -4.96 8.56 c0 1.76 0.44 3.4 1.36 4.92 c1.76 3.08 4.88 5 8.56 5 c1.8 0 3.44 -0.44 4.96 -1.36 c3 -1.76 4.92 -5.04 4.92 -8.56 c0 -1.8 -0.44 -3.48 -1.32 -5 c-1.76 -3.04 -5.08 -4.88 -8.56 -4.88 z M35.64 34.68 c-1.56 0 -3.04 -0.4 -4.36 -1.16 c-2.68 -1.56 -4.4 -4.52 -4.4 -7.56 c0 -1.56 0.4 -3.04 1.2 -4.4 c1.56 -2.72 4.32 -4.28 7.56 -4.28 c1.56 0 3 0.4 4.32 1.16 c2.68 1.56 4.24 4.28 4.24 7.52 c0 1.6 -0.36 3.04 -1.08 4.36 c-1.48 2.64 -4.32 4.36 -7.48 4.36 z M35.64 18.72 c-1.28 0 -2.48 0.32 -3.6 0.96 c-2.24 1.32 -3.68 3.68 -3.68 6.28 c0 1.28 0.32 2.48 0.96 3.56 c1.28 2.24 3.6 3.6 6.32 3.6 c1.32 0 2.56 -0.32 3.64 -0.96 c2.2 -1.28 3.52 -3.64 3.52 -6.2 c0 -1.32 -0.32 -2.52 -0.96 -3.64 c-1.28 -2.24 -3.64 -3.6 -6.2 -3.6 z M48.88 12 l1.44 0 l0 26.56 l3.92 0 l0 -10 l9.36 0 l0 -1.32 l-9.32 0 l0 -1.44 l10.76 0 l0 4.2 l-9.36 0 l0 10 l-6.8 0 l0 -28 z M51.56 12 l15.44 0 l0 6.8 l-10 0 l0 -1.44 l8.56 0 l0 -3.92 l-12.6 0 l0 24 l-1.4 0 l0 -25.44 z M54.24 14.600000000000001 l10.08 0 l0 1.44 l-8.64 0 l0 7.08 l9.36 0 l0 1.48 l-10.8 0 l0 -10 z M72.84 38.6 l0 -26.6 l-1.44 0 l0 28.04 l7 -0.04 l0 -11.44 l10.96 -13.88 l-1.84 0 l-10.6 13.36 l0 10.56 l-4.08 0 z M76.88000000000001 21.28 l1.48 -1.84 l0 -7.44 l-4.24 0 l0 12.84 l1.44 -1.84 l0 -9.52 l1.32 0 l0 7.8 z M94.84 12 l-8.84 0 l-11.88 15.24 l0 10.32 l1.44 0 l0 -9.84 l11.12 -14.24 l5.2 0 l-11.28 14.36 l7.2 9.72 l1.8 0 l-7.16 -9.72 z M92 38.6 l-5.08 0 l-7.16 -9.68 l0 2.4 l6.44 8.68 l8.68 0 l-9.8 -13.16 l-0.92 1.16 z M100.96000000000001 37.52 l1.76 0 l1.4 -3.36 l10.44 0.04 l2.56 5.8 l7.36 -0.04 l-12.6 -27.96 l-2.56 0 l-12.52 27.96 l7.8 0 l1.36 -3.2 l7.96 0 l-0.6 -1.36 l-8.24 0 l-1.28 3.16 l-4.76 0 l11.08 -25.2 l0.96 0 l11.12 25.2 l-4.24 0 l-2.56 -5.72 l-12.4 0 z M105.72000000000001 30.48 l4.88 -11.64 l8.2 18.64 l1.64 0 l-9.84 -21.92 l-7.2 16.16 l11.6 0 l-4.4 -9.72 l-3.04 7.32 l1.56 0 l1.48 -3.64 l2.2 4.8 l-7.08 0 z"></path>
  </g>
  <g id="SvgjsG1019" featurekey="nameFeature-1"
    transform="matrix(1.934235948245553,0,0,1.934235948245553,56.000004611577864,172.78917231031565)"
    fill="#111111">
    <path
      d="M19.48 26.119999999999997 c0.92 -1.4 1.4 -3.16 1.4 -5.2 c0 -5.56 -3.28 -8.72 -8.92 -8.72 l-9.24 0 l0 12.04 l9.4 0 c2.12 0 3.4 -1.2 3.4 -3.32 c0 -1.12 -0.4 -2.04 -1.2 -2.8 c-0.52 -0.48 -1.4 -0.76 -2.2 -0.76 l-6.68 0 l0 4.2 l1.44 0 l0 -2.8 l5.24 0 c1.16 0 1.96 0.76 1.96 2.16 c0 1.24 -0.64 1.88 -1.96 1.88 l-8 0 l0 -9.16 l7.64 0 c4.96 0 7.72 2.52 7.72 7.28 c0 1.56 -0.32 2.92 -1 4.16 l-0.4 0.64 l-0.44 0.44 l0.52 0.52 l0.76 0.88 c0.48 0.6 0.72 1.84 0.72 3.76 c0 4.68 -2.8 7.2 -7.88 7.2 l-10.32 0 l0 -26.36 l-1.44 0 l0 27.8 l11.76 0 c5.8 0 9.32 -3.2 9.32 -8.64 c0 -2.08 -0.52 -3.8 -1.6 -5.2 z M12.72 37.36 c1.4 0 2.72 -0.52 3.96 -1.6 c1.16 -1.16 1.76 -2.56 1.76 -4.16 c0 -2 -0.64 -3.56 -1.96 -4.72 l-1.04 -0.76 c1.8 -1 2.88 -2.92 2.88 -5.44 c0 -1.08 -0.24 -2.12 -0.72 -3.04 c-0.96 -1.84 -2.68 -2.84 -4.88 -2.84 l-7.24 0 l0 1.44 l7.24 0 c0.68 0 1.32 0.2 2 0.6 c1.28 0.8 2.12 2.24 2.12 3.84 c0 2.76 -1.68 4.72 -4.24 4.72 l-9.84 0 l0 1.44 l9.84 0 c2.68 0 4.4 1.84 4.4 4.76 c0 1.6 -0.68 2.84 -2.08 3.68 c-0.68 0.4 -1.4 0.6 -2.2 0.6 l-8.6 0 l0 -6.32 l8 0 c1.4 0 2.08 0.64 2.08 1.88 c0 1.28 -0.68 1.92 -2.08 1.92 l-5.24 0 l0 -2.64 l-1.44 0 l0 4.08 l6.68 0 c1.56 0 2.6 -0.56 3.16 -1.72 c0.24 -0.44 0.36 -1 0.36 -1.64 c0 -2.08 -1.4 -3.36 -3.52 -3.36 l-9.4 0 l0 9.28 l10 0 z M27.240000000000002 37.52 l1.76 0 l1.4 -3.36 l10.44 0.04 l2.56 5.8 l7.36 -0.04 l-12.6 -27.96 l-2.56 0 l-12.52 27.96 l7.8 0 l1.36 -3.2 l7.96 0 l-0.6 -1.36 l-8.24 0 l-1.28 3.16 l-4.76 0 l11.08 -25.2 l0.96 0 l11.12 25.2 l-4.24 0 l-2.56 -5.72 l-12.4 0 z M32 30.48 l4.88 -11.64 l8.2 18.64 l1.64 0 l-9.84 -21.92 l-7.2 16.16 l11.6 0 l-4.4 -9.72 l-3.04 7.32 l1.56 0 l1.48 -3.64 l2.2 4.8 l-7.08 0 z M71.96000000000001 28.6 l-16.36 -16.6 l-2 0 l19.8 20.12 l0 -17.32 l-1.44 0 l0 13.8 z M70.64 25.4 l0 -12 l4.08 0 l0 25.16 l-0.68 0 l-0.16 -0.16 l-18.32 -18.56 l0 20.16 l4.2 0 l0 -11.8 l-1.48 -1.52 l0 11.88 l-1.28 0 l0 -15.2 l16.6 16.64 l2.56 0 l0 -28 l-6.96 0 l0 11.84 z M54.24 40 l0 -23.4 l19.16 19.44 l0 -2.12 l-20.56 -20.76 l0 26.84 l1.4 0 z M81.36 38.6 l0 -26.6 l-1.44 0 l0 28.04 l7 -0.04 l0 -11.44 l10.96 -13.88 l-1.84 0 l-10.6 13.36 l0 10.56 l-4.08 0 z M85.4 21.28 l1.48 -1.84 l0 -7.44 l-4.24 0 l0 12.84 l1.44 -1.84 l0 -9.52 l1.32 0 l0 7.8 z M103.36 12 l-8.84 0 l-11.88 15.24 l0 10.32 l1.44 0 l0 -9.84 l11.12 -14.24 l5.2 0 l-11.28 14.36 l7.2 9.72 l1.8 0 l-7.16 -9.72 z M100.52000000000001 38.6 l-5.08 0 l-7.16 -9.68 l0 2.4 l6.44 8.68 l8.68 0 l-9.8 -13.16 l-0.92 1.16 z"></path>
  </g>
</svg>